<svg xmlns="http://www.w3.org/2000/svg"  viewBox="0 0 64 64" width="512px" height="512px"><path fill="#c2cde7" d="M32,10L32,10c2.761,0,5,2.239,5,5v11c0,2.761-2.239,5-5,5l0,0c-2.761,0-5-2.239-5-5V15	C27,12.239,29.239,10,32,10z"/><path fill="#c2cde7" d="M58.39,15c0,2.76-1.43,5.45-4,6.93C45.48,27.07,40,36.57,40,46.85v1.84c0,4.26-3.19,7.99-7.43,8.29	c-2.43,0.17-4.66-0.76-6.23-2.32C24.9,53.21,24,51.21,24,49v-2.15c0-5.14-1.37-10.09-3.85-14.39c-2.49-4.3-6.09-7.96-10.54-10.53	C5.78,19.72,4.47,14.83,6.68,11s7.1-5.14,10.93-2.93L23,11.18V26c0,4.96,4.04,9,9,9s9-4.04,9-9V11.18l5.39-3.11	c3.83-2.21,8.72-0.9,10.93,2.93C58.05,12.26,58.39,13.64,58.39,15z"/><path fill="#8d6c9f" d="M32,32c-3.309,0-6-2.691-6-6V15c0-3.309,2.691-6,6-6s6,2.691,6,6v11C38,29.309,35.309,32,32,32z M32,11c-2.206,0-4,1.794-4,4v11c0,2.206,1.794,4,4,4s4-1.794,4-4V15C36,12.794,34.206,11,32,11z"/><path fill="#8d6c9f" d="M20,48.873h-2c-0.553,0-1-0.447-1-1s0.447-1,1-1h2c0.553,0,1,0.447,1,1S20.553,48.873,20,48.873z"/><path fill="#8d6c9f" d="M17.644,43.857c-0.476,0-0.897-0.341-0.983-0.825c-0.097-0.544,0.266-1.063,0.81-1.159l1.969-0.35	c0.546-0.097,1.063,0.267,1.159,0.81c0.097,0.544-0.266,1.063-0.81,1.159l-1.969,0.35C17.761,43.853,17.701,43.857,17.644,43.857z"/><path fill="#8d6c9f" d="M16.244,39.075c-0.392,0-0.764-0.231-0.923-0.616c-0.213-0.51,0.028-1.095,0.539-1.307l1.847-0.769	c0.506-0.212,1.095,0.027,1.307,0.539c0.213,0.51-0.028,1.095-0.539,1.307l-1.847,0.769C16.503,39.051,16.373,39.075,16.244,39.075z"/><path fill="#8d6c9f" d="M13.835,34.718c-0.313,0-0.622-0.146-0.817-0.422c-0.318-0.45-0.212-1.075,0.238-1.395l1.632-1.156	c0.451-0.318,1.074-0.213,1.395,0.238c0.318,0.45,0.212,1.075-0.238,1.395l-1.632,1.156C14.236,34.658,14.035,34.718,13.835,34.718z"/><path fill="#8d6c9f" d="M10.527,30.988c-0.24,0-0.48-0.086-0.672-0.26c-0.409-0.37-0.439-1.003-0.068-1.412l1.344-1.481	c0.37-0.41,1.003-0.439,1.412-0.068c0.409,0.37,0.439,1.003,0.068,1.412l-1.344,1.481C11.07,30.878,10.8,30.988,10.527,30.988z"/><path fill="#8d6c9f" d="M6.481,28.051c-0.173,0-0.348-0.045-0.508-0.139c-0.476-0.281-0.633-0.895-0.353-1.37l1.018-1.722	c0.283-0.476,0.895-0.632,1.37-0.352c0.476,0.281,0.633,0.894,0.353,1.37L7.344,27.56C7.156,27.875,6.823,28.051,6.481,28.051z"/><path fill="#8d6c9f" d="M46,48.873h-2c-0.553,0-1-0.447-1-1s0.447-1,1-1h2c0.553,0,1,0.447,1,1S46.553,48.873,46,48.873z"/><path fill="#8d6c9f" d="M46.356,43.857c-0.058,0-0.116-0.005-0.176-0.016l-1.969-0.35c-0.544-0.097-0.906-0.615-0.81-1.159	c0.097-0.543,0.604-0.909,1.159-0.81l1.969,0.35c0.544,0.097,0.906,0.615,0.81,1.159C47.254,43.517,46.832,43.857,46.356,43.857z"/><path fill="#8d6c9f" d="M47.755,39.075c-0.129,0-0.259-0.024-0.385-0.077l-1.846-0.769c-0.51-0.212-0.751-0.798-0.538-1.308	c0.212-0.51,0.8-0.75,1.308-0.538l1.846,0.769c0.51,0.212,0.751,0.798,0.538,1.308C48.519,38.844,48.146,39.075,47.755,39.075z"/><path fill="#8d6c9f" d="M50.165,34.718c-0.2,0-0.401-0.06-0.577-0.184l-1.632-1.156c-0.45-0.319-0.557-0.944-0.238-1.395	c0.32-0.451,0.943-0.557,1.395-0.238l1.632,1.156c0.45,0.319,0.557,0.944,0.238,1.395C50.787,34.571,50.479,34.718,50.165,34.718z"/><path fill="#8d6c9f" d="M53.473,30.988c-0.272,0-0.543-0.11-0.74-0.328l-1.344-1.481c-0.371-0.409-0.341-1.042,0.068-1.412	c0.408-0.371,1.041-0.341,1.412,0.068l1.344,1.481c0.371,0.409,0.341,1.042-0.068,1.412C53.953,30.902,53.713,30.988,53.473,30.988z"/><path fill="#8d6c9f" d="M57.519,28.051c-0.342,0-0.675-0.176-0.862-0.491l-1.018-1.722c-0.28-0.476-0.123-1.089,0.353-1.37	c0.476-0.28,1.088-0.124,1.37,0.352l1.018,1.722c0.28,0.476,0.123,1.089-0.353,1.37C57.867,28.006,57.691,28.051,57.519,28.051z"/><path fill="#8d6c9f" d="M32.011,58c-2.379,0-4.674-0.939-6.376-2.63C23.934,53.656,23,51.396,23,49v-2.15	c0-4.871-1.285-9.675-3.716-13.89c-2.44-4.214-5.959-7.729-10.174-10.164c-4.299-2.48-5.777-7.997-3.297-12.296	C8.295,6.203,13.81,4.722,18.11,7.204l5.39,3.11c0.31,0.179,0.5,0.509,0.5,0.866V26c0,4.411,3.589,8,8,8s8-3.589,8-8V11.18	c0-0.357,0.19-0.688,0.5-0.866l5.39-3.11c4.302-2.482,9.815-1.002,12.297,3.296c0.787,1.359,1.203,2.916,1.203,4.5	c0,3.21-1.725,6.198-4.501,7.797C46.322,27.739,41,36.956,41,46.85v1.841c0,4.875-3.672,8.955-8.359,9.287	C32.431,57.993,32.22,58,32.011,58z M13.621,8c-2.422,0-4.78,1.256-6.075,3.5c-1.93,3.344-0.779,7.634,2.564,9.564	c4.518,2.61,8.289,6.376,10.905,10.895C23.623,36.479,25,41.628,25,46.85V49c0,1.864,0.728,3.624,2.05,4.956	c1.438,1.429,3.424,2.169,5.451,2.026C36.145,55.725,39,52.521,39,48.69v-1.84c0-10.606,5.705-20.486,14.89-25.786	c2.159-1.243,3.5-3.566,3.5-6.064c0-1.233-0.323-2.443-0.935-3.499c-1.931-3.344-6.221-4.497-9.565-2.565L42,11.758V26	c0,5.514-4.486,10-10,10s-10-4.486-10-10V11.758l-4.89-2.822C16.011,8.301,14.809,8,13.621,8z"/></svg>